<?xml version="1.0" encoding="utf-8"?>
<!-- Generator: Adobe Illustrator 19.1.0, SVG Export Plug-In . SVG Version: 6.00 Build 0)  -->
<svg version="1.1" id="Layer_2" xmlns="http://www.w3.org/2000/svg" xmlns:xlink="http://www.w3.org/1999/xlink" x="0px" y="0px"
	 viewBox="-739 1255 1000 1000" style="enable-background:new -739 1255 1000 1000;" xml:space="preserve">
<style type="text/css">
	.st0{fill:#333333;stroke:#FFFFFF;stroke-miterlimit:10;}
	.st1{fill:none;stroke:#FFFFFF;stroke-miterlimit:10;}
	.st2{fill:#FFFFFF;stroke:#FFFFFF;stroke-miterlimit:10;}
	.st3{fill:#FFFFFF;}
	.st4{font-family:'Hallosans-Black';}
	.st5{font-size:89px;}
	.st6{font-size:42px;}
</style>
<polygon class="st0" points="-581,1765.2 115.1,1762.4 116.7,2103.2 -582.6,2103.2 "/>
<path class="st0" d="M-582.6,2103.2h699.3c0,0,4.4,19.9-4.8,19.3c-9.2-0.6-680.6,0-680.6,0s-13.4,0.7-13.6-14.7
	S-582.6,2103.2-582.6,2103.2z"/>
<polygon class="st0" points="-580.6,1674 -580.6,1758.5 116.7,1758.5 114.6,1674 "/>
<polygon class="st0" points="-577.7,1604.9 -578.1,1667.9 107.4,1669.7 108.1,1608.7 160.1,1608 176.9,1563.4 244.2,1562.4 
	243.7,1517.6 231.4,1517.3 230,1493.4 180.7,1494.1 174.8,1517.2 116.8,1394 -605,1396.4 -644.1,1496.7 -677.2,1497.1 
	-676.9,1518.3 -724.9,1519.1 -725,1560.8 -676.6,1561.2 -676.1,1578.2 -644.1,1577.5 -734,1698.7 -720.2,1796.6 -694.2,1795.8 
	-708.8,1706.6 -615.5,1580.1 "/>
<polygon class="st1" points="-569.9,1581.4 -573.2,1591.4 101.2,1591.4 104.6,1578.8 "/>
<polygon class="st2" points="-420.3,2025.8 -420.9,2056.5 -57.8,2058.9 -58.8,2027.7 "/>
<path class="st2" d="M-430,2026.6l-46.5-0.1c0,0-10.9,20.5,6.1,31.4h43L-430,2026.6z"/>
<path class="st2" d="M-49.2,2027.7l-0.1,31.2l46.8,0.1c0,0,6.2-25.5-0.6-31.1L-49.2,2027.7z"/>
<path class="st3" d="M-464.4,1960.3h33c0,0,8.5,27.5,0,33s-31,0-33,0S-468.4,1960.3-464.4,1960.3z"/>
<path class="st3" d="M-415.9,1960.3h33c0,0,8.5,27.5,0,33s-31,0-33,0S-419.9,1960.3-415.9,1960.3z"/>
<path class="st3" d="M-367.9,1962.8h33c0,0,8.5,27.5,0,33s-31,0-33,0S-371.9,1962.8-367.9,1962.8z"/>
<path class="st3" d="M-319.4,1962.8h33c0,0,8.5,27.5,0,33s-31,0-33,0S-323.4,1962.8-319.4,1962.8z"/>
<path class="st3" d="M-273.2,1962.8h33c0,0,8.5,27.5,0,33s-31,0-33,0S-277.2,1962.8-273.2,1962.8z"/>
<path class="st3" d="M-223.9,1962.8h33c0,0,8.5,27.5,0,33s-31,0-33,0S-227.9,1962.8-223.9,1962.8z"/>
<path class="st3" d="M-174.4,1962.8h33c0,0,8.5,27.5,0,33s-31,0-33,0S-178.4,1962.8-174.4,1962.8z"/>
<path class="st3" d="M-129.9,1962.8h33c0,0,8.5,27.5,0,33s-31,0-33,0S-133.9,1962.8-129.9,1962.8z"/>
<path class="st3" d="M-80.9,1962.8h33c0,0,8.5,27.5,0,33s-31,0-33,0S-84.9,1962.8-80.9,1962.8z"/>
<path class="st3" d="M-31.9,1962.8h33c0,0,8.5,27.5,0,33s-31,0-33,0S-35.9,1962.8-31.9,1962.8z"/>
<path class="st3" d="M-487.4,1911.3h33c0,0,8.5,27.5,0,33s-31,0-33,0S-491.4,1911.3-487.4,1911.3z"/>
<path class="st3" d="M-441.4,1911.3h33c0,0,8.5,27.5,0,33s-31,0-33,0S-445.4,1911.3-441.4,1911.3z"/>
<path class="st3" d="M-390.5,1911.3h33c0,0,8.5,27.5,0,33s-31,0-33,0S-394.5,1911.3-390.5,1911.3z"/>
<path class="st3" d="M-451.4,1856.3h33c0,0,8.5,27.5,0,33s-31,0-33,0S-455.4,1856.3-451.4,1856.3z"/>
<path class="st3" d="M-501.4,1856.3h33c0,0,8.5,27.5,0,33s-31,0-33,0S-505.4,1856.3-501.4,1856.3z"/>
<path class="st3" d="M-7.9,1915.1h33c0,0,8.5,27.5,0,33s-31,0-33,0S-11.9,1915.1-7.9,1915.1z"/>
<path class="st3" d="M-54.4,1915.1h33c0,0,8.5,27.5,0,33s-31,0-33,0S-58.4,1915.1-54.4,1915.1z"/>
<path class="st3" d="M-103.4,1911.3h33c0,0,8.5,27.5,0,33s-31,0-33,0S-107.4,1911.3-103.4,1911.3z"/>
<path class="st3" d="M-151.4,1911.3h33c0,0,8.5,27.5,0,33s-31,0-33,0S-155.4,1911.3-151.4,1911.3z"/>
<path class="st3" d="M-198.9,1911.3h33c0,0,8.5,27.5,0,33s-31,0-33,0S-202.9,1911.3-198.9,1911.3z"/>
<path class="st3" d="M-247.8,1911.3h33c0,0,8.5,27.5,0,33s-31,0-33,0S-251.8,1911.3-247.8,1911.3z"/>
<path class="st3" d="M-295.4,1915.1h33c0,0,8.5,27.5,0,33s-31,0-33,0S-299.4,1915.1-295.4,1915.1z"/>
<path class="st3" d="M-342.9,1911.3h33c0,0,8.5,27.5,0,33s-31,0-33,0S-346.9,1911.3-342.9,1911.3z"/>
<path class="st3" d="M-280.3,1799.8h33c0,0,8.5,27.5,0,33s-31,0-33,0S-284.3,1799.8-280.3,1799.8z"/>
<path class="st3" d="M-331.9,1799.8h33c0,0,8.5,27.5,0,33s-31,0-33,0S-335.9,1799.8-331.9,1799.8z"/>
<path class="st3" d="M-382,1799.8h33c0,0,8.5,27.5,0,33s-31,0-33,0S-386,1799.8-382,1799.8z"/>
<path class="st3" d="M-429.5,1799.8h33c0,0,8.5,27.5,0,33s-31,0-33,0S-433.5,1799.8-429.5,1799.8z"/>
<path class="st3" d="M-477.6,1799.8h33c0,0,8.5,27.5,0,33s-31,0-33,0S-481.6,1799.8-477.6,1799.8z"/>
<path class="st3" d="M-526.5,1796.6h33c0,0,8.5,27.5,0,33s-31,0-33,0S-530.5,1796.6-526.5,1796.6z"/>
<path class="st3" d="M-17.1,1859.3h33c0,0,8.5,27.5,0,33s-31,0-33,0S-21.1,1859.3-17.1,1859.3z"/>
<path class="st3" d="M-66.5,1859.3h33c0,0,8.5,27.5,0,33s-31,0-33,0S-70.5,1859.3-66.5,1859.3z"/>
<path class="st3" d="M-112.3,1859.3h33c0,0,8.5,27.5,0,33s-31,0-33,0S-116.3,1859.3-112.3,1859.3z"/>
<path class="st3" d="M-160.9,1856.3h33c0,0,8.5,27.5,0,33s-31,0-33,0S-164.9,1856.3-160.9,1856.3z"/>
<path class="st3" d="M-210.9,1856.3h33c0,0,8.5,27.5,0,33s-31,0-33,0S-214.9,1856.3-210.9,1856.3z"/>
<path class="st3" d="M-256.6,1856.3h33c0,0,8.5,27.5,0,33s-31,0-33,0C-258.6,1889.3-260.6,1856.3-256.6,1856.3z"/>
<path class="st3" d="M-306.4,1856.3h33c0,0,8.5,27.5,0,33s-31,0-33,0S-310.4,1856.3-306.4,1856.3z"/>
<path class="st3" d="M-354.4,1856.3h33c0,0,8.5,27.5,0,33s-31,0-33,0S-358.4,1856.3-354.4,1856.3z"/>
<path class="st3" d="M-403.4,1856.3h33c0,0,8.5,27.5,0,33s-31,0-33,0S-407.4,1856.3-403.4,1856.3z"/>
<path class="st3" d="M-542.5,1950.5h33c0,0,8.5-27.5,0-33s-31,0-33,0S-546.5,1950.5-542.5,1950.5z"/>
<path class="st3" d="M7.2,1803.3h33c0,0,8.5,27.5,0,33s-31,0-33,0S3.2,1803.3,7.2,1803.3z"/>
<path class="st3" d="M-38.8,1799.8h33c0,0,8.5,27.5,0,33s-31,0-33,0S-42.8,1799.8-38.8,1799.8z"/>
<path class="st3" d="M-86,1799.8h33c0,0,8.5,27.5,0,33s-31,0-33,0S-90,1799.8-86,1799.8z"/>
<path class="st3" d="M-135.3,1799.8h33c0,0,8.5,27.5,0,33s-31,0-33,0S-139.3,1799.8-135.3,1799.8z"/>
<path class="st3" d="M-184.8,1799.8h33c0,0,8.5,27.5,0,33s-31,0-33,0S-188.8,1799.8-184.8,1799.8z"/>
<path class="st3" d="M-232.9,1799.8h33c0,0,8.5,27.5,0,33s-31,0-33,0S-236.9,1799.8-232.9,1799.8z"/>
<path class="st3" d="M-554.5,1888h33c0,0,8.5-27.5,0-33s-31,0-33,0S-558.5,1888-554.5,1888z"/>
<path class="st3" d="M42.5,1894.8h33c0,0,8.5-27.5,0-33s-31,0-33,0S38.5,1894.8,42.5,1894.8z"/>
<path class="st3" d="M59,1825.5h33c0,0,8.5-27.5,0-33s-31,0-33,0S55,1825.5,59,1825.5z"/>
<path class="st2" d="M-250.1,1675c0,0-9.9,18.9-32.5,34c-19.4,13-51.5,22.5-57,24.9h217.2c0,0-90.7-31.5-88.6-57.3L-250.1,1675z"/>
<text transform="matrix(1 0 0 1 -542 1522.0001)" class="st3 st4 st5">John Baskerville</text>
<text transform="matrix(1 0 0 1 -517.6746 1829.5074)" class="st4 st6">L</text>
<text transform="matrix(1 0 0 1 -470.1622 1832.0129)" class="st4 st6">E</text>
<text transform="matrix(1 0 0 1 -424.1622 1832.0129)" class="st4 st6">T</text>
<text transform="matrix(1 0 0 1 -373.2234 1832.0129)" class="st4 st6">T</text>
<text transform="matrix(1 0 0 1 -325.6622 1832.0129)" class="st4 st6">E</text>
<text transform="matrix(1 0 0 1 -275.3335 1829.7228)" class="st4 st6">R</text>
<text transform="matrix(1 0 0 1 -546.6667 1885.0558)" class="st4 st6">F</text>
<text transform="matrix(1 0 0 1 -497.039 1886.667)" class="st4 st6">O</text>
<text transform="matrix(1 0 0 1 -445.5176 1888.6664)" class="st4 st6">U</text>
<text transform="matrix(1 0 0 1 -398.1003 1887.0558)" class="st4 st6">N</text>
<text transform="matrix(1 0 0 1 -349.333 1888)" class="st4 st6">D</text>
<text transform="matrix(1 0 0 1 -302.3725 1888)" class="st4 st6">E</text>
<text transform="matrix(1 0 0 1 -250.865 1889.7225)" class="st4 st6">R</text>
<text transform="matrix(1 0 0 1 -153.8202 1889.0162)" class="st4 st6">&amp;</text>
<text transform="matrix(1 0 0 1 -343.9855 1946.1187)" class="st4 st6">M</text>
<text transform="matrix(1 0 0 1 -287.2809 1948.1183)" class="st4 st6">A</text>
<text transform="matrix(1 0 0 1 -240.8718 1944.5078)" class="st4 st6">S</text>
<text transform="matrix(1 0 0 1 -189.1581 1946.3898)" class="st4 st6">T</text>
<text transform="matrix(1 0 0 1 -145.4036 1944.0004)" class="st4 st6">E</text>
<text transform="matrix(1 0 0 1 -96.9043 1943.4513)" class="st4 st6">R</text>
<text transform="matrix(1 0 0 1 -310.8291 1996)" class="st4 st6">P</text>
<text transform="matrix(1 0 0 1 -269.075 1994.667)" class="st4 st6">R</text>
<text transform="matrix(1 0 0 1 -213.6838 1995.3336)" class="st4 st6">I</text>
<text transform="matrix(1 0 0 1 -170.5388 1994.667)" class="st4 st6">N</text>
<text transform="matrix(1 0 0 1 -75.224 1994.5562)" class="st4 st6">E</text>
<text transform="matrix(1 0 0 1 -123.3289 1995.3334)" class="st4 st6">T</text>
<text transform="matrix(1 0 0 1 -25.4291 1994)" class="st4 st6">R</text>
</svg>
